HIERARCHY
ROOT Hips
{
	OFFSET -0.001795 -0.223333 0.028219
	CHANNELS 6 Xposition Yposition Zposition Zrotation Yrotation Xrotation 
	JOINT LeftUpLeg
	{
		OFFSET 0.069520 -0.091406 -0.006815
		CHANNELS 3 Zrotation Yrotation Xrotation
		JOINT LeftLeg
		{
			OFFSET 0.034277 -0.375199 -0.004496
			CHANNELS 3 Zrotation Yrotation Xrotation
			JOINT LeftFoot
			{
				OFFSET -0.013596 -0.397961 -0.043693
				CHANNELS 3 Zrotation Yrotation Xrotation
				JOINT LeftToe
				{
					OFFSET 0.026358 -0.055791 0.119288
					CHANNELS 3 Zrotation Yrotation Xrotation
					End Site
					{
						OFFSET 0.000000 0.000000 0.000000
					}
				}
			}
		}
	}
	JOINT RightUpLeg
	{
		OFFSET -0.067670 -0.090522 -0.004320
		CHANNELS 3 Zrotation Yrotation Xrotation
		JOINT RightLeg
		{
			OFFSET -0.038290 -0.382569 -0.008850
			CHANNELS 3 Zrotation Yrotation Xrotation
			JOINT RightFoot
			{
				OFFSET 0.015774 -0.398415 -0.042312
				CHANNELS 3 Zrotation Yrotation Xrotation
				JOINT RightToe
				{
					OFFSET -0.025372 -0.048144 0.123348
					CHANNELS 3 Zrotation Yrotation Xrotation
					End Site
					{
						OFFSET 0.000000 0.000000 0.000000
					}
				}
			}
		}
	}
	JOINT Spine
	{
		OFFSET -0.002533 0.108963 -0.026696
		CHANNELS 3 Zrotation Yrotation Xrotation
		JOINT Spine1
		{
			OFFSET 0.005487 0.135180 0.001092
			CHANNELS 3 Zrotation Yrotation Xrotation
			JOINT Spine2
			{
				OFFSET 0.001457 0.052922 0.025425
				CHANNELS 3 Zrotation Yrotation Xrotation
				JOINT Neck
				{
					OFFSET -0.002778 0.213870 -0.042857
					CHANNELS 3 Zrotation Yrotation Xrotation
					JOINT Head
					{
						OFFSET 0.005152 0.064970 0.051349
						CHANNELS 3 Zrotation Yrotation Xrotation
						End Site
						{
							OFFSET 0.000000 0.000000 0.000000
						}
					}
				}
				JOINT LeftShoulder
				{
					OFFSET 0.078845 0.121749 -0.034090
					CHANNELS 3 Zrotation Yrotation Xrotation
					JOINT LeftArm
					{
						OFFSET 0.090977 0.030469 -0.008868
						CHANNELS 3 Zrotation Yrotation Xrotation
						JOINT LeftForeArm
						{
							OFFSET 0.259612 -0.012772 -0.027456
							CHANNELS 3 Zrotation Yrotation Xrotation
							JOINT LeftHand
							{
								OFFSET 0.249234 0.008986 -0.001171
								CHANNELS 3 Zrotation Yrotation Xrotation
								End Site
								{
									OFFSET 0.000000 0.000000 0.000000
								}
							}
						}
					}
				}
				JOINT RightShoulder
				{
					OFFSET -0.081759 0.118833 -0.038615
					CHANNELS 3 Zrotation Yrotation Xrotation
					JOINT RightArm
					{
						OFFSET -0.096012 0.032551 -0.009143
						CHANNELS 3 Zrotation Yrotation Xrotation
						JOINT RightForeArm
						{
							OFFSET -0.253742 -0.013329 -0.021401
							CHANNELS 3 Zrotation Yrotation Xrotation
							JOINT RightHand
							{
								OFFSET -0.255298 0.007772 -0.005559
								CHANNELS 3 Zrotation Yrotation Xrotation
								End Site
								{
									OFFSET 0.000000 0.000000 0.000000
								}
							}
						}
					}
				}
			}
		}
	}
}
MOTION
Frames: 9
Frame Time: 0.050000
0.000000 0.945459 0.000000 0.708938 0.675352 2.408578 4.566652 0.064118 2.972697 -2.679374 0.357874 -6.860890 3.970830 11.449388 13.893871 0.000000 0.000000 0.000000 -4.111033 0.023222 1.379640 3.526979 -0.413651 -4.364017 -3.227883 -10.884897 11.413621 0.000000 0.000000 0.000000 -2.048821 0.039899 -0.359988 4.343847 -0.731657 -19.165176 -0.566388 -0.356319 28.488180 -0.930826 2.214345 -28.392061 0.000000 0.000000 0.000000 -38.000164 -2.773048 -0.680363 -44.695686 -4.908295 -5.647214 1.985300 -26.519833 0.941549 0.000000 0.000000 0.000000 30.244990 8.609799 3.946836 48.882596 5.324396 -4.951809 -7.138438 24.060816 -0.281237 0.000000 0.000000 0.000000 
0.002147 0.944643 -0.000874 0.718639 -0.069821 3.187690 4.664415 0.055543 2.866874 -3.276282 0.399395 -8.081877 4.306028 11.923388 14.156800 0.000000 0.000000 0.000000 -4.611428 0.152031 -0.169047 4.021429 -0.434769 -3.413580 -3.029777 -10.499465 11.000791 0.000000 0.000000 0.000000 -2.279084 0.084486 -2.044539 4.580824 -0.839077 -18.735399 -0.844019 1.022966 28.868644 0.211831 1.747108 -28.372723 0.000000 0.000000 0.000000 -36.946459 -2.370617 -1.339249 -46.241571 -4.503438 -5.861669 2.301215 -27.172137 0.894646 0.000000 0.000000 0.000000 29.943549 7.723949 3.776576 50.456339 5.422802 -5.192931 -6.932364 26.296350 -0.179815 0.000000 0.000000 0.000000 
0.004518 0.944496 -0.001782 0.844455 0.323102 3.606973 4.522691 -0.002726 1.793900 -3.477057 0.398981 -7.214301 4.217484 11.765471 13.783536 0.000000 0.000000 0.000000 -4.854541 0.190806 -0.710853 3.995346 -0.435604 -3.273690 -3.249553 -10.890966 11.083325 0.000000 0.000000 0.000000 -1.837670 0.104887 -2.834706 3.673976 -0.548617 -19.034500 -0.855994 0.222227 29.853567 -0.109271 1.822140 -28.409865 0.000000 0.000000 0.000000 -35.872607 -2.333547 -0.925237 -46.686907 -4.907793 -5.952612 2.515960 -26.778596 0.872050 0.000000 0.000000 0.000000 29.691849 8.882175 4.333291 50.503790 5.432146 -5.183273 -6.632296 25.766948 -0.152005 0.000000 0.000000 0.000000 
0.006948 0.944571 -0.002402 1.116065 -0.006214 3.836874 4.148081 -0.000472 1.556745 -3.690876 0.412143 -7.235801 4.360340 11.965724 13.879995 0.000000 0.000000 0.000000 -5.311601 0.246988 -1.435855 3.926497 -0.423370 -2.585062 -3.182479 -10.767942 10.937084 0.000000 0.000000 0.000000 -2.175458 0.117510 -3.401084 4.030480 -0.640155 -19.304781 -0.865448 0.434236 30.174522 -0.331664 1.946895 -28.377944 0.000000 0.000000 0.000000 -36.478661 -2.144297 -1.114760 -46.672960 -3.839917 -6.331665 2.292790 -28.162157 0.990644 0.000000 0.000000 0.000000 29.936605 8.955459 4.412616 50.570866 4.635104 -5.524651 -6.821256 27.569886 -0.185764 0.000000 0.000000 0.000000 
0.009458 0.945284 -0.002706 1.005497 0.152073 3.716860 4.023598 0.001763 1.528406 -3.522090 0.401988 -7.029895 4.290411 11.869275 13.842939 0.000000 0.000000 0.000000 -5.247738 0.226227 -1.134246 3.755599 -0.412928 -2.890090 -3.171731 -10.820532 11.385321 0.000000 0.000000 0.000000 -1.875831 0.119698 -3.427136 4.114528 -0.684905 -18.934120 -1.129151 0.275541 29.854231 -0.373854 1.969435 -28.533872 0.000000 0.000000 0.000000 -36.085492 -1.925801 -1.234791 -47.146925 -3.319606 -6.550042 1.996486 -28.694715 1.090452 0.000000 0.000000 0.000000 30.444548 9.087434 4.464100 50.141685 4.711825 -5.402825 -6.895061 28.031609 -0.217844 0.000000 0.000000 0.000000 
0.012086 0.945899 -0.002737 1.104981 -0.042685 3.600111 3.543748 0.041518 1.870457 -3.213443 0.392089 -7.369717 4.330334 11.945031 14.042847 0.000000 0.000000 0.000000 -5.674471 0.236266 -1.132239 3.971477 -0.427515 -2.728404 -3.045399 -10.648802 11.611893 0.000000 0.000000 0.000000 -1.971652 0.118402 -3.417789 4.085294 -0.658712 -19.288496 -0.910951 0.198682 30.077250 -0.471782 1.997845 -28.757755 0.000000 0.000000 0.000000 -35.734314 -1.696924 -1.248331 -47.597495 -3.164106 -6.721848 1.479811 -28.806207 1.247904 0.000000 0.000000 0.000000 30.332632 8.983963 4.311234 50.240078 4.702960 -5.416196 -6.331034 28.693681 -0.093833 0.000000 0.000000 0.000000 
0.014672 0.946287 -0.002776 1.013495 -0.187718 3.479787 3.555179 0.052157 2.016209 -3.385532 0.401037 -7.364077 4.392492 12.023975 14.040065 0.000000 0.000000 0.000000 -5.687298 0.235565 -1.108971 3.838764 -0.415037 -2.586433 -2.946830 -10.521833 11.803365 0.000000 0.000000 0.000000 -1.739116 0.116296 -3.248689 4.121606 -0.665985 -19.390542 -1.088118 -0.015973 30.012460 -0.374231 1.885002 -28.619327 0.000000 0.000000 0.000000 -36.058412 -1.382468 -1.345876 -47.457630 -2.976617 -6.821415 1.580075 -28.745380 1.240500 0.000000 0.000000 0.000000 30.592761 9.102556 4.242334 49.867739 4.776036 -5.303067 -6.180026 29.095269 -0.082695 0.000000 0.000000 0.000000 
0.017297 0.946497 -0.003005 0.896412 -0.478529 3.389824 3.524890 0.060505 2.080598 -3.464528 0.407585 -7.262673 4.549515 12.226814 13.984331 0.000000 0.000000 0.000000 -5.801475 0.245590 -1.206568 3.908531 -0.416803 -2.352744 -2.789981 -10.287496 11.926188 0.000000 0.000000 0.000000 -1.592859 0.111588 -2.998466 3.997254 -0.622100 -19.667529 -0.948275 -0.099542 29.980640 -0.389865 1.864871 -28.956127 0.000000 0.000000 0.000000 -36.026091 -1.457413 -1.141096 -47.233044 -2.982455 -6.834272 1.555855 -28.595515 1.247034 0.000000 0.000000 0.000000 30.606582 9.030963 4.069699 49.599344 4.771321 -5.250748 -5.547409 29.223274 0.048791 0.000000 0.000000 0.000000 
0.019939 0.946462 -0.003382 0.808398 -0.752102 3.299039 3.654665 0.067752 2.225444 -3.882210 0.430021 -7.320109 4.679879 12.387232 13.917391 0.000000 0.000000 0.000000 -5.980627 0.256173 -1.297290 4.039272 -0.424321 -2.141931 -2.649867 -10.071543 11.985486 0.000000 0.000000 0.000000 -1.438088 0.110143 -2.899101 4.043558 -0.643756 -19.624665 -0.909464 -0.168710 29.828449 -0.300917 1.784910 -29.140409 0.000000 0.000000 0.000000 -36.024039 -1.542387 -0.945427 -47.201551 -3.278174 -6.753691 1.818793 -28.433988 1.185377 0.000000 0.000000 0.000000 30.655451 9.196111 4.050023 49.308434 4.908643 -5.117018 -5.516683 29.140330 0.031362 0.000000 0.000000 0.000000 
